<svg xmlns="http://www.w3.org/2000/svg" xmlns:xlink="http://www.w3.org/1999/xlink" width="1920" zoomAndPan="magnify" viewBox="0 0 1440 809.999993" height="1080" preserveAspectRatio="xMidYMid meet" version="1.0"><defs><filter x="0%" y="0%" width="100%" height="100%" id="ee1cc44068"><feColorMatrix values="0 0 0 0 1 0 0 0 0 1 0 0 0 0 1 0 0 0 1 0" color-interpolation-filters="sRGB"/></filter><linearGradient x1="0" gradientTransform="matrix(0.75, 0, 0, 0.75, 0.00000622222, 0.00002)" y1="540" x2="1919.99992" gradientUnits="userSpaceOnUse" y2="540" id="bbb09ef0f9"><stop stop-opacity="1" stop-color="rgb(0%, 79.998779%, 100%)" offset="0"/><stop stop-opacity="1" stop-color="rgb(0%, 79.8172%, 100%)" offset="0.015625"/><stop stop-opacity="1" stop-color="rgb(0%, 79.455566%, 100%)" offset="0.03125"/><stop stop-opacity="1" stop-color="rgb(0%, 79.093933%, 100%)" offset="0.046875"/><stop stop-opacity="1" stop-color="rgb(0%, 78.7323%, 100%)" offset="0.0625"/><stop stop-opacity="1" stop-color="rgb(0%, 78.372192%, 100%)" offset="0.078125"/><stop stop-opacity="1" stop-color="rgb(0%, 78.010559%, 100%)" offset="0.09375"/><stop stop-opacity="1" stop-color="rgb(0%, 77.648926%, 100%)" offset="0.109375"/><stop stop-opacity="1" stop-color="rgb(0%, 77.287292%, 100%)" offset="0.125"/><stop stop-opacity="1" stop-color="rgb(0%, 76.925659%, 100%)" offset="0.140625"/><stop stop-opacity="1" stop-color="rgb(0%, 76.564026%, 100%)" offset="0.15625"/><stop stop-opacity="1" stop-color="rgb(0%, 76.202393%, 100%)" offset="0.171875"/><stop stop-opacity="1" stop-color="rgb(0%, 75.840759%, 100%)" offset="0.1875"/><stop stop-opacity="1" stop-color="rgb(0%, 75.479126%, 100%)" offset="0.203125"/><stop stop-opacity="1" stop-color="rgb(0%, 75.117493%, 100%)" offset="0.21875"/><stop stop-opacity="1" stop-color="rgb(0%, 74.755859%, 100%)" offset="0.234375"/><stop stop-opacity="1" stop-color="rgb(0%, 74.394226%, 100%)" offset="0.25"/><stop stop-opacity="1" stop-color="rgb(0%, 74.032593%, 100%)" offset="0.265625"/><stop stop-opacity="1" stop-color="rgb(0%, 73.670959%, 100%)" offset="0.28125"/><stop stop-opacity="1" stop-color="rgb(0%, 73.309326%, 100%)" offset="0.296875"/><stop stop-opacity="1" stop-color="rgb(0%, 72.947693%, 100%)" offset="0.3125"/><stop stop-opacity="1" stop-color="rgb(0%, 72.58606%, 100%)" offset="0.328125"/><stop stop-opacity="1" stop-color="rgb(0%, 72.224426%, 100%)" offset="0.34375"/><stop stop-opacity="1" stop-color="rgb(0%, 71.862793%, 100%)" offset="0.359375"/><stop stop-opacity="1" stop-color="rgb(0%, 71.50116%, 100%)" offset="0.375"/><stop stop-opacity="1" stop-color="rgb(0%, 71.139526%, 100%)" offset="0.390625"/><stop stop-opacity="1" stop-color="rgb(0%, 70.779419%, 100%)" offset="0.40625"/><stop stop-opacity="1" stop-color="rgb(0%, 70.417786%, 100%)" offset="0.421875"/><stop stop-opacity="1" stop-color="rgb(0%, 70.056152%, 100%)" offset="0.4375"/><stop stop-opacity="1" stop-color="rgb(0%, 69.694519%, 100%)" offset="0.453125"/><stop stop-opacity="1" stop-color="rgb(0%, 69.332886%, 100%)" offset="0.46875"/><stop stop-opacity="1" stop-color="rgb(0%, 68.971252%, 100%)" offset="0.484375"/><stop stop-opacity="1" stop-color="rgb(0%, 68.609619%, 100%)" offset="0.5"/><stop stop-opacity="1" stop-color="rgb(0%, 68.247986%, 100%)" offset="0.515625"/><stop stop-opacity="1" stop-color="rgb(0%, 67.886353%, 100%)" offset="0.53125"/><stop stop-opacity="1" stop-color="rgb(0%, 67.524719%, 100%)" offset="0.546875"/><stop stop-opacity="1" stop-color="rgb(0%, 67.163086%, 100%)" offset="0.5625"/><stop stop-opacity="1" stop-color="rgb(0%, 66.801453%, 100%)" offset="0.578125"/><stop stop-opacity="1" stop-color="rgb(0%, 66.439819%, 100%)" offset="0.59375"/><stop stop-opacity="1" stop-color="rgb(0%, 66.078186%, 100%)" offset="0.609375"/><stop stop-opacity="1" stop-color="rgb(0%, 65.716553%, 100%)" offset="0.625"/><stop stop-opacity="1" stop-color="rgb(0%, 65.354919%, 100%)" offset="0.640625"/><stop stop-opacity="1" stop-color="rgb(0%, 64.993286%, 100%)" offset="0.65625"/><stop stop-opacity="1" stop-color="rgb(0%, 64.631653%, 100%)" offset="0.671875"/><stop stop-opacity="1" stop-color="rgb(0%, 64.27002%, 100%)" offset="0.6875"/><stop stop-opacity="1" stop-color="rgb(0%, 63.908386%, 100%)" offset="0.703125"/><stop stop-opacity="1" stop-color="rgb(0%, 63.546753%, 100%)" offset="0.71875"/><stop stop-opacity="1" stop-color="rgb(0%, 63.18512%, 100%)" offset="0.734375"/><stop stop-opacity="1" stop-color="rgb(0%, 62.825012%, 100%)" offset="0.75"/><stop stop-opacity="1" stop-color="rgb(0%, 62.463379%, 100%)" offset="0.765625"/><stop stop-opacity="1" stop-color="rgb(0%, 62.101746%, 100%)" offset="0.78125"/><stop stop-opacity="1" stop-color="rgb(0%, 61.740112%, 100%)" offset="0.796875"/><stop stop-opacity="1" stop-color="rgb(0%, 61.378479%, 100%)" offset="0.8125"/><stop stop-opacity="1" stop-color="rgb(0%, 61.016846%, 100%)" offset="0.828125"/><stop stop-opacity="1" stop-color="rgb(0%, 60.655212%, 100%)" offset="0.84375"/><stop stop-opacity="1" stop-color="rgb(0%, 60.293579%, 100%)" offset="0.859375"/><stop stop-opacity="1" stop-color="rgb(0%, 59.931946%, 100%)" offset="0.875"/><stop stop-opacity="1" stop-color="rgb(0%, 59.570312%, 100%)" offset="0.890625"/><stop stop-opacity="1" stop-color="rgb(0%, 59.208679%, 100%)" offset="0.90625"/><stop stop-opacity="1" stop-color="rgb(0%, 58.847046%, 100%)" offset="0.921875"/><stop stop-opacity="1" stop-color="rgb(0%, 58.485413%, 100%)" offset="0.9375"/><stop stop-opacity="1" stop-color="rgb(0%, 58.123779%, 100%)" offset="0.953125"/><stop stop-opacity="1" stop-color="rgb(0%, 57.762146%, 100%)" offset="0.96875"/><stop stop-opacity="1" stop-color="rgb(0%, 57.400513%, 100%)" offset="0.984375"/><stop stop-opacity="1" stop-color="rgb(0%, 57.038879%, 100%)" offset="1"/></linearGradient><mask id="187933781c"><g filter="url(#ee1cc44068)"><rect x="-144" width="1728" fill="#000000" y="-80.999999" height="971.999992" fill-opacity="0.4"/></g></mask><clipPath id="82c1aba11d"><path d="M 0 0.839844 L 1440 0.839844 L 1440 99.480469 L 0 99.480469 Z M 0 0.839844 " clip-rule="nonzero"/></clipPath><clipPath id="6eeb2d3670"><path d="M 92 0.839844 L 192 0.839844 L 192 99.480469 L 92 99.480469 Z M 92 0.839844 " clip-rule="nonzero"/></clipPath><mask id="1d1337ae42"><g filter="url(#ee1cc44068)"><rect x="-524.16" width="2488.32" fill="#000000" y="-489.839997" height="1399.679988" fill-opacity="0.2"/></g></mask><clipPath id="72442f98eb"><path d="M 0.363281 0.929688 L 98.820312 0.929688 L 98.820312 99.386719 L 0.363281 99.386719 Z M 0.363281 0.929688 " clip-rule="nonzero"/></clipPath><clipPath id="c8adb6d9ce"><rect x="0" width="100" y="0" height="100"/></clipPath><clipPath id="6e8a966db9"><path d="M 307 0.839844 L 407 0.839844 L 407 99.480469 L 307 99.480469 Z M 307 0.839844 " clip-rule="nonzero"/></clipPath><mask id="cb72cd0d33"><g filter="url(#ee1cc44068)"><rect x="-524.16" width="2488.32" fill="#000000" y="-489.839997" height="1399.679988" fill-opacity="0.2"/></g></mask><clipPath id="e5aa583e0b"><path d="M 0.503906 0.929688 L 98.964844 0.929688 L 98.964844 99.386719 L 0.503906 99.386719 Z M 0.503906 0.929688 " clip-rule="nonzero"/></clipPath><clipPath id="06e8252fef"><rect x="0" width="100" y="0" height="100"/></clipPath><clipPath id="46022d8994"><path d="M 199 0.839844 L 299 0.839844 L 299 99.480469 L 199 99.480469 Z M 199 0.839844 " clip-rule="nonzero"/></clipPath><mask id="359290fea6"><g filter="url(#ee1cc44068)"><rect x="-524.16" width="2488.32" fill="#000000" y="-489.839997" height="1399.679988" fill-opacity="0.2"/></g></mask><clipPath id="7d3235d564"><path d="M 0.855469 0.929688 L 99.3125 0.929688 L 99.3125 99.386719 L 0.855469 99.386719 Z M 0.855469 0.929688 " clip-rule="nonzero"/></clipPath><clipPath id="2548c8577d"><path d="M 0.855469 0.96875 L 99.3125 0.96875 L 99.3125 99.386719 L 0.855469 99.386719 Z M 0.855469 0.96875 " clip-rule="nonzero"/></clipPath><clipPath id="78a9817f06"><rect x="0" width="100" y="0" height="100"/></clipPath><clipPath id="d48127e374"><rect x="0" width="100" y="0" height="100"/></clipPath><clipPath id="c7c700fa00"><path d="M 0 0.839844 L 84 0.839844 L 84 99.480469 L 0 99.480469 Z M 0 0.839844 " clip-rule="nonzero"/></clipPath><mask id="eee3bd96c9"><g filter="url(#ee1cc44068)"><rect x="-524.16" width="2488.32" fill="#000000" y="-489.839997" height="1399.679988" fill-opacity="0.2"/></g></mask><clipPath id="516bdb478a"><path d="M 0 0.929688 L 83.402344 0.929688 L 83.402344 99.386719 L 0 99.386719 Z M 0 0.929688 " clip-rule="nonzero"/></clipPath><clipPath id="6b6a98fc2b"><path d="M 0 0.96875 L 83.359375 0.96875 L 83.359375 99.386719 L 0 99.386719 Z M 0 0.96875 " clip-rule="nonzero"/></clipPath><clipPath id="a3d4cc5e17"><rect x="0" width="84" y="0" height="100"/></clipPath><clipPath id="08c1810a5a"><rect x="0" width="84" y="0" height="100"/></clipPath><clipPath id="863b630cf1"><path d="M 632 0.839844 L 731 0.839844 L 731 99.480469 L 632 99.480469 Z M 632 0.839844 " clip-rule="nonzero"/></clipPath><mask id="73aeba5ff8"><g filter="url(#ee1cc44068)"><rect x="-524.16" width="2488.32" fill="#000000" y="-489.839997" height="1399.679988" fill-opacity="0.2"/></g></mask><clipPath id="edee02eb3c"><path d="M 0.257812 0.929688 L 98.714844 0.929688 L 98.714844 99.386719 L 0.257812 99.386719 Z M 0.257812 0.929688 " clip-rule="nonzero"/></clipPath><clipPath id="e94c3a7e66"><rect x="0" width="99" y="0" height="100"/></clipPath><clipPath id="4aa7b55285"><path d="M 847 0.839844 L 947 0.839844 L 947 99.480469 L 847 99.480469 Z M 847 0.839844 " clip-rule="nonzero"/></clipPath><mask id="509facd79e"><g filter="url(#ee1cc44068)"><rect x="-524.16" width="2488.32" fill="#000000" y="-489.839997" height="1399.679988" fill-opacity="0.2"/></g></mask><clipPath id="3f3409e702"><path d="M 0.398438 0.929688 L 98.859375 0.929688 L 98.859375 99.386719 L 0.398438 99.386719 Z M 0.398438 0.929688 " clip-rule="nonzero"/></clipPath><clipPath id="9ef229953f"><rect x="0" width="100" y="0" height="100"/></clipPath><clipPath id="4f34fce6e7"><path d="M 739 0.839844 L 839 0.839844 L 839 99.480469 L 739 99.480469 Z M 739 0.839844 " clip-rule="nonzero"/></clipPath><mask id="3f79bce1bb"><g filter="url(#ee1cc44068)"><rect x="-524.16" width="2488.32" fill="#000000" y="-489.839997" height="1399.679988" fill-opacity="0.2"/></g></mask><clipPath id="65d34ed932"><path d="M 0.75 0.929688 L 99.207031 0.929688 L 99.207031 99.386719 L 0.75 99.386719 Z M 0.75 0.929688 " clip-rule="nonzero"/></clipPath><clipPath id="ff3903ed8e"><path d="M 0.75 0.96875 L 99.207031 0.96875 L 99.207031 99.386719 L 0.75 99.386719 Z M 0.75 0.96875 " clip-rule="nonzero"/></clipPath><clipPath id="fc336ba2fa"><rect x="0" width="100" y="0" height="100"/></clipPath><clipPath id="bb0ed4e7b6"><rect x="0" width="100" y="0" height="100"/></clipPath><clipPath id="1881110648"><path d="M 524 0.839844 L 624 0.839844 L 624 99.480469 L 524 99.480469 Z M 524 0.839844 " clip-rule="nonzero"/></clipPath><mask id="217adcdfe4"><g filter="url(#ee1cc44068)"><rect x="-524.16" width="2488.32" fill="#000000" y="-489.839997" height="1399.679988" fill-opacity="0.2"/></g></mask><clipPath id="5d1a31e3d7"><path d="M 0.839844 0.929688 L 99.296875 0.929688 L 99.296875 99.386719 L 0.839844 99.386719 Z M 0.839844 0.929688 " clip-rule="nonzero"/></clipPath><clipPath id="da2372387a"><path d="M 0.839844 0.96875 L 99.253906 0.96875 L 99.253906 99.386719 L 0.839844 99.386719 Z M 0.839844 0.96875 " clip-rule="nonzero"/></clipPath><clipPath id="b029feea6c"><rect x="0" width="100" y="0" height="100"/></clipPath><clipPath id="76c19fdc1b"><rect x="0" width="100" y="0" height="100"/></clipPath><clipPath id="617f9f04bc"><path d="M 417 0.839844 L 516 0.839844 L 516 99.480469 L 417 99.480469 Z M 417 0.839844 " clip-rule="nonzero"/></clipPath><mask id="e5d15c5a20"><g filter="url(#ee1cc44068)"><rect x="-524.16" width="2488.32" fill="#000000" y="-489.839997" height="1399.679988" fill-opacity="0.2"/></g></mask><clipPath id="7350be0b22"><path d="M 0.347656 0.929688 L 98.804688 0.929688 L 98.804688 99.386719 L 0.347656 99.386719 Z M 0.347656 0.929688 " clip-rule="nonzero"/></clipPath><clipPath id="613ac3e2f4"><path d="M 0.347656 0.96875 L 98.804688 0.96875 L 98.804688 99.386719 L 0.347656 99.386719 Z M 0.347656 0.96875 " clip-rule="nonzero"/></clipPath><clipPath id="c7e20a0854"><rect x="0" width="99" y="0" height="100"/></clipPath><clipPath id="0a67c5992a"><rect x="0" width="99" y="0" height="100"/></clipPath><clipPath id="c201f53483"><path d="M 1171 0.839844 L 1271 0.839844 L 1271 99.480469 L 1171 99.480469 Z M 1171 0.839844 " clip-rule="nonzero"/></clipPath><mask id="a2b5377ad7"><g filter="url(#ee1cc44068)"><rect x="-524.16" width="2488.32" fill="#000000" y="-489.839997" height="1399.679988" fill-opacity="0.2"/></g></mask><clipPath id="b0004a1762"><path d="M 1.019531 0.929688 L 99.476562 0.929688 L 99.476562 99.386719 L 1.019531 99.386719 Z M 1.019531 0.929688 " clip-rule="nonzero"/></clipPath><clipPath id="2fdfd96749"><rect x="0" width="100" y="0" height="100"/></clipPath><clipPath id="3b3198c471"><path d="M 1386 0.839844 L 1440 0.839844 L 1440 99.480469 L 1386 99.480469 Z M 1386 0.839844 " clip-rule="nonzero"/></clipPath><mask id="e4b8584847"><g filter="url(#ee1cc44068)"><rect x="-524.16" width="2488.32" fill="#000000" y="-489.839997" height="1399.679988" fill-opacity="0.2"/></g></mask><clipPath id="b34aa49a8b"><path d="M 1.160156 0.929688 L 54 0.929688 L 54 99.386719 L 1.160156 99.386719 Z M 1.160156 0.929688 " clip-rule="nonzero"/></clipPath><clipPath id="7ecb2ac68f"><rect x="0" width="54" y="0" height="100"/></clipPath><clipPath id="d2aa13e626"><path d="M 1279 0.839844 L 1379 0.839844 L 1379 99.480469 L 1279 99.480469 Z M 1279 0.839844 " clip-rule="nonzero"/></clipPath><mask id="52a1c374e3"><g filter="url(#ee1cc44068)"><rect x="-524.16" width="2488.32" fill="#000000" y="-489.839997" height="1399.679988" fill-opacity="0.2"/></g></mask><clipPath id="0b6caf9bcc"><path d="M 0.507812 0.929688 L 98.96875 0.929688 L 98.96875 99.386719 L 0.507812 99.386719 Z M 0.507812 0.929688 " clip-rule="nonzero"/></clipPath><clipPath id="45fbc5d1c8"><path d="M 0.507812 0.96875 L 98.96875 0.96875 L 98.96875 99.386719 L 0.507812 99.386719 Z M 0.507812 0.96875 " clip-rule="nonzero"/></clipPath><clipPath id="6d295099e7"><rect x="0" width="99" y="0" height="100"/></clipPath><clipPath id="7fe3193609"><rect x="0" width="100" y="0" height="100"/></clipPath><clipPath id="fa7b2d4f16"><path d="M 1064 0.839844 L 1164 0.839844 L 1164 99.480469 L 1064 99.480469 Z M 1064 0.839844 " clip-rule="nonzero"/></clipPath><mask id="1014ea43ce"><g filter="url(#ee1cc44068)"><rect x="-524.16" width="2488.32" fill="#000000" y="-489.839997" height="1399.679988" fill-opacity="0.2"/></g></mask><clipPath id="9f24417861"><path d="M 0.597656 0.929688 L 99.058594 0.929688 L 99.058594 99.386719 L 0.597656 99.386719 Z M 0.597656 0.929688 " clip-rule="nonzero"/></clipPath><clipPath id="e6ce8d6cbd"><path d="M 0.597656 0.96875 L 99.015625 0.96875 L 99.015625 99.386719 L 0.597656 99.386719 Z M 0.597656 0.96875 " clip-rule="nonzero"/></clipPath><clipPath id="fab2ccf886"><rect x="0" width="100" y="0" height="100"/></clipPath><clipPath id="8f78a3bd4e"><rect x="0" width="100" y="0" height="100"/></clipPath><clipPath id="3d4dbe5638"><path d="M 956 0.839844 L 1056 0.839844 L 1056 99.480469 L 956 99.480469 Z M 956 0.839844 " clip-rule="nonzero"/></clipPath><mask id="72cbdc552a"><g filter="url(#ee1cc44068)"><rect x="-524.16" width="2488.32" fill="#000000" y="-489.839997" height="1399.679988" fill-opacity="0.2"/></g></mask><clipPath id="e8d1e02102"><path d="M 1.109375 0.929688 L 99.566406 0.929688 L 99.566406 99.386719 L 1.109375 99.386719 Z M 1.109375 0.929688 " clip-rule="nonzero"/></clipPath><clipPath id="3e9cd127cd"><path d="M 0.109375 0.96875 L 98.566406 0.96875 L 98.566406 99.386719 L 0.109375 99.386719 Z M 0.109375 0.96875 " clip-rule="nonzero"/></clipPath><clipPath id="cb3dcbc089"><rect x="0" width="99" y="0" height="100"/></clipPath><clipPath id="c3ce6fcbeb"><rect x="0" width="100" y="0" height="100"/></clipPath><clipPath id="4dc11e7ca1"><rect x="0" width="1440" y="0" height="100"/></clipPath><clipPath id="30311c3cb2"><rect x="0" width="1440" y="0" height="100"/></clipPath></defs><rect x="-144" width="1728" fill="#ffffff" y="-80.999999" height="971.999992" fill-opacity="1"/><rect x="-144" fill="url(#bbb09ef0f9)" width="1728" y="-80.999999" height="971.999992"/><g mask="url(#187933781c)"><g transform="matrix(1, 0, 0, 1, 0, 195)"><g clip-path="url(#30311c3cb2)"><g clip-path="url(#82c1aba11d)"><g transform="matrix(1, 0, 0, 1, 0, 0.000000000000056843)"><g clip-path="url(#4dc11e7ca1)"><g clip-path="url(#6eeb2d3670)"><g mask="url(#1d1337ae42)"><g transform="matrix(1, 0, 0, 1, 92, 0.000000000000056843)"><g clip-path="url(#c8adb6d9ce)"><g clip-path="url(#72442f98eb)"><path fill="#08122e" d="M 54.960938 99.429688 L 98.820312 99.429688 C 98.820312 45.027344 54.722656 0.929688 0.320312 0.929688 L 0.320312 44.789062 C 30.496094 44.789062 54.960938 69.253906 54.960938 99.429688 Z M 54.960938 99.429688 " fill-opacity="1" fill-rule="nonzero"/></g></g></g></g></g><g clip-path="url(#6e8a966db9)"><g mask="url(#cb72cd0d33)"><g transform="matrix(1, 0, 0, 1, 307, 0.000000000000056843)"><g clip-path="url(#06e8252fef)"><g clip-path="url(#e5aa583e0b)"><path fill="#08122e" d="M 55.101562 99.429688 L 98.964844 99.429688 C 98.964844 45.027344 54.863281 0.929688 0.464844 0.929688 L 0.464844 44.789062 C 30.640625 44.789062 55.101562 69.253906 55.101562 99.429688 Z M 55.101562 99.429688 " fill-opacity="1" fill-rule="nonzero"/></g></g></g></g></g><g clip-path="url(#46022d8994)"><g mask="url(#359290fea6)"><g transform="matrix(1, 0, 0, 1, 199, 0.000000000000056843)"><g clip-path="url(#d48127e374)"><g clip-path="url(#7d3235d564)"><g transform="matrix(1, 0, 0, 1, 0, 0.000000000000056843)"><g clip-path="url(#78a9817f06)"><g clip-path="url(#2548c8577d)"><path fill="#08122e" d="M 55.449219 0.929688 L 99.3125 0.929688 C 99.3125 55.328125 55.214844 99.429688 0.8125 99.429688 L 0.8125 55.566406 C 30.988281 55.566406 55.449219 31.105469 55.449219 0.929688 Z M 55.449219 0.929688 " fill-opacity="1" fill-rule="nonzero"/></g></g></g></g></g></g></g></g><g clip-path="url(#c7c700fa00)"><g mask="url(#eee3bd96c9)"><g transform="matrix(1, 0, 0, 1, 0, 0.000000000000056843)"><g clip-path="url(#08c1810a5a)"><g clip-path="url(#516bdb478a)"><g transform="matrix(1, 0, 0, 1, 0, 0.000000000000056843)"><g clip-path="url(#a3d4cc5e17)"><g clip-path="url(#6b6a98fc2b)"><path fill="#08122e" d="M 28.761719 0.929688 L -15.097656 0.929688 C -15.097656 55.328125 29 99.429688 83.402344 99.429688 L 83.402344 55.566406 C 53.226562 55.566406 28.761719 31.105469 28.761719 0.929688 Z M 28.761719 0.929688 " fill-opacity="1" fill-rule="nonzero"/></g></g></g></g></g></g></g></g><g clip-path="url(#863b630cf1)"><g mask="url(#73aeba5ff8)"><g transform="matrix(1, 0, 0, 1, 632, 0.000000000000056843)"><g clip-path="url(#e94c3a7e66)"><g clip-path="url(#edee02eb3c)"><path fill="#08122e" d="M 54.855469 99.429688 L 98.714844 99.429688 C 98.714844 45.027344 54.617188 0.929688 0.214844 0.929688 L 0.214844 44.789062 C 30.390625 44.789062 54.855469 69.253906 54.855469 99.429688 Z M 54.855469 99.429688 " fill-opacity="1" fill-rule="nonzero"/></g></g></g></g></g><g clip-path="url(#4aa7b55285)"><g mask="url(#509facd79e)"><g transform="matrix(1, 0, 0, 1, 847, 0.000000000000056843)"><g clip-path="url(#9ef229953f)"><g clip-path="url(#3f3409e702)"><path fill="#08122e" d="M 54.996094 99.429688 L 98.859375 99.429688 C 98.859375 45.027344 54.757812 0.929688 0.359375 0.929688 L 0.359375 44.789062 C 30.535156 44.789062 54.996094 69.253906 54.996094 99.429688 Z M 54.996094 99.429688 " fill-opacity="1" fill-rule="nonzero"/></g></g></g></g></g><g clip-path="url(#4f34fce6e7)"><g mask="url(#3f79bce1bb)"><g transform="matrix(1, 0, 0, 1, 739, 0.000000000000056843)"><g clip-path="url(#bb0ed4e7b6)"><g clip-path="url(#65d34ed932)"><g transform="matrix(1, 0, 0, 1, 0, 0.000000000000056843)"><g clip-path="url(#fc336ba2fa)"><g clip-path="url(#ff3903ed8e)"><path fill="#08122e" d="M 55.34375 0.929688 L 99.207031 0.929688 C 99.207031 55.328125 55.109375 99.429688 0.707031 99.429688 L 0.707031 55.566406 C 30.882812 55.566406 55.34375 31.105469 55.34375 0.929688 Z M 55.34375 0.929688 " fill-opacity="1" fill-rule="nonzero"/></g></g></g></g></g></g></g></g><g clip-path="url(#1881110648)"><g mask="url(#217adcdfe4)"><g transform="matrix(1, 0, 0, 1, 524, 0.000000000000056843)"><g clip-path="url(#76c19fdc1b)"><g clip-path="url(#5d1a31e3d7)"><g transform="matrix(1, 0, 0, 1, 0, 0.000000000000056843)"><g clip-path="url(#b029feea6c)"><g clip-path="url(#da2372387a)"><path fill="#08122e" d="M 44.660156 0.929688 L 0.796875 0.929688 C 0.796875 55.328125 44.894531 99.429688 99.296875 99.429688 L 99.296875 55.566406 C 69.121094 55.566406 44.660156 31.105469 44.660156 0.929688 Z M 44.660156 0.929688 " fill-opacity="1" fill-rule="nonzero"/></g></g></g></g></g></g></g></g><g clip-path="url(#617f9f04bc)"><g mask="url(#e5d15c5a20)"><g transform="matrix(1, 0, 0, 1, 417, 0.000000000000056843)"><g clip-path="url(#0a67c5992a)"><g clip-path="url(#7350be0b22)"><g transform="matrix(1, 0, 0, 1, 0, 0.000000000000056843)"><g clip-path="url(#c7e20a0854)"><g clip-path="url(#613ac3e2f4)"><path fill="#08122e" d="M 54.945312 0.929688 L 98.804688 0.929688 C 98.804688 55.328125 54.707031 99.429688 0.304688 99.429688 L 0.304688 55.566406 C 30.480469 55.566406 54.945312 31.105469 54.945312 0.929688 Z M 54.945312 0.929688 " fill-opacity="1" fill-rule="nonzero"/></g></g></g></g></g></g></g></g><g clip-path="url(#c201f53483)"><g mask="url(#a2b5377ad7)"><g transform="matrix(1, 0, 0, 1, 1171, 0.000000000000056843)"><g clip-path="url(#2fdfd96749)"><g clip-path="url(#b0004a1762)"><path fill="#08122e" d="M 55.613281 99.429688 L 99.476562 99.429688 C 99.476562 45.027344 55.378906 0.929688 0.976562 0.929688 L 0.976562 44.789062 C 31.152344 44.789062 55.613281 69.253906 55.613281 99.429688 Z M 55.613281 99.429688 " fill-opacity="1" fill-rule="nonzero"/></g></g></g></g></g><g clip-path="url(#3b3198c471)"><g mask="url(#e4b8584847)"><g transform="matrix(1, 0, 0, 1, 1386, 0.000000000000056843)"><g clip-path="url(#7ecb2ac68f)"><g clip-path="url(#b34aa49a8b)"><path fill="#08122e" d="M 55.757812 99.429688 L 99.621094 99.429688 C 99.621094 45.027344 55.519531 0.929688 1.121094 0.929688 L 1.121094 44.789062 C 31.296875 44.789062 55.757812 69.253906 55.757812 99.429688 Z M 55.757812 99.429688 " fill-opacity="1" fill-rule="nonzero"/></g></g></g></g></g><g clip-path="url(#d2aa13e626)"><g mask="url(#52a1c374e3)"><g transform="matrix(1, 0, 0, 1, 1279, 0.000000000000056843)"><g clip-path="url(#7fe3193609)"><g clip-path="url(#0b6caf9bcc)"><g transform="matrix(1, 0, 0, 1, 0, 0.000000000000056843)"><g clip-path="url(#6d295099e7)"><g clip-path="url(#45fbc5d1c8)"><path fill="#08122e" d="M 55.105469 0.929688 L 98.96875 0.929688 C 98.96875 55.328125 54.867188 99.429688 0.46875 99.429688 L 0.46875 55.566406 C 30.644531 55.566406 55.105469 31.105469 55.105469 0.929688 Z M 55.105469 0.929688 " fill-opacity="1" fill-rule="nonzero"/></g></g></g></g></g></g></g></g><g clip-path="url(#fa7b2d4f16)"><g mask="url(#1014ea43ce)"><g transform="matrix(1, 0, 0, 1, 1064, 0.000000000000056843)"><g clip-path="url(#8f78a3bd4e)"><g clip-path="url(#9f24417861)"><g transform="matrix(1, 0, 0, 1, 0, 0.000000000000056843)"><g clip-path="url(#fab2ccf886)"><g clip-path="url(#e6ce8d6cbd)"><path fill="#08122e" d="M 44.417969 0.929688 L 0.558594 0.929688 C 0.558594 55.328125 44.65625 99.429688 99.058594 99.429688 L 99.058594 55.566406 C 68.882812 55.566406 44.417969 31.105469 44.417969 0.929688 Z M 44.417969 0.929688 " fill-opacity="1" fill-rule="nonzero"/></g></g></g></g></g></g></g></g><g clip-path="url(#3d4dbe5638)"><g mask="url(#72cbdc552a)"><g transform="matrix(1, 0, 0, 1, 956, 0.000000000000056843)"><g clip-path="url(#c3ce6fcbeb)"><g clip-path="url(#e8d1e02102)"><g transform="matrix(1, 0, 0, 1, 1, 0.000000000000056843)"><g clip-path="url(#cb3dcbc089)"><g clip-path="url(#3e9cd127cd)"><path fill="#08122e" d="M 54.703125 0.929688 L 98.566406 0.929688 C 98.566406 55.328125 54.46875 99.429688 0.0664062 99.429688 L 0.0664062 55.566406 C 30.242188 55.566406 54.703125 31.105469 54.703125 0.929688 Z M 54.703125 0.929688 " fill-opacity="1" fill-rule="nonzero"/></g></g></g></g></g></g></g></g></g></g></g></g></g></g></svg>